<svg version="1.1" xmlns="http://www.w3.org/2000/svg" xmlns:xlink="http://www.w3.org/1999/xlink" width="187px" height="50px"
	 viewBox="0 0 187 50" enable-background="new 0 0 187 50" xml:space="preserve">
<path fill="#58595B" d="M172.7,0c0.7,0.1,1,0.4,0.8,1.1c-0.1,0.4-0.2,0.9-0.4,1.3c-0.2,0.4-0.4,1-0.7,1.4c-0.7,1-1.6,1.6-2.7,1.9
	c-0.6,0.2-1.1-0.1-1-0.8c0.1-1.3,0.6-2.5,1.4-3.4c0.3-0.4,0.7-0.6,1.1-0.9c0.2-0.1,0.5-0.3,0.7-0.4C172.1,0.2,172.4,0.1,172.7,0
	L172.7,0z"/>
<path fill="#58595B" d="M13.9,4c-0.5,0-0.7,0.3-0.7,0.8c0.1,0.4,0.1,0.7,0.1,1.2V25l0,0v19.7c0,0.6,0.1,0.8,0.8,0.8
	c5.1-0.1,10.1-0.1,15.2-0.1c2,0,3.9-0.4,5.8-1.1c0.9-0.3,1.8-0.7,2.7-1.3c0.7-0.4,1.4-0.9,2-1.5c1.2-1.1,2.2-2.4,3-3.9
	c0.3-0.5,0.6-1,0.8-1.6c0.4-0.9,0.7-1.7,1-2.6c0.1-0.7,0.3-1.3,0.4-2c0.1-0.3,0.1-0.6,0.2-0.9c0.2-2.4,0.4-4.8,0.3-7.2
	c-0.1-1.3-0.1-2.6-0.4-4c-0.1-1-0.4-1.9-0.6-2.9c-0.2-0.5-0.4-1.1-0.6-1.7c-0.1-0.1-0.1-0.2-0.2-0.4c-0.1-0.1-0.1-0.3-0.2-0.5
	c-0.4-0.6-0.6-1.2-1-1.8c-0.1-0.4-0.4-0.7-0.6-1C41,10,40.3,9.2,39.5,8.4C38.8,7.7,38,7,37.1,6.6c-0.5-0.2-1-0.4-1.5-0.7
	c-0.4-0.2-0.8-0.4-1.3-0.5c-0.2-0.1-0.4-0.1-0.6-0.1C33.4,5,33,4.9,32.5,4.7c-0.3-0.1-0.6-0.1-0.9-0.1c-1.1-0.4-2.3-0.4-3.5-0.4
	C23.3,4,18.6,4,13.9,4L13.9,4z M24.4,11.3c0.3,0,0.6,0,0.8,0l0,0c0.3,0,0.6,0,0.8,0l0,0c0.3,0,0.6,0,0.8,0l0,0c0.3,0,0.6,0,0.8,0
	l0,0c0.1,0,0.3,0.1,0.4,0.1l0,0c0.1,0,0.3,0,0.4,0l0,0c0.1,0,0.3,0,0.4,0l0,0c0.1,0.1,0.3,0.1,0.4,0.1l0,0c0.1,0,0.3,0,0.4,0.1l0,0
	c0.1,0,0.3,0,0.4,0l0,0c0.3,0.1,0.5,0.1,0.7,0.1l0,0c0.4,0.1,0.7,0.1,1,0.2l0,0c0.2,0.1,0.4,0.1,0.6,0.3c0.6,0.2,1.1,0.6,1.5,0.9
	c0.4,0.2,0.7,0.5,1.1,0.8c0.7,0.7,1.3,1.5,1.8,2.3c0.4,0.7,0.6,1.4,0.9,2.2c0,0.1,0,0.1,0.1,0.3c0.6,1.6,0.6,3.2,0.7,4.9
	c0.1,2.1-0.1,4.2-0.3,6.3c-0.1,0.3-0.2,0.7-0.3,1c-0.1,0.3-0.2,0.7-0.3,1c-0.2,0.9-0.6,1.6-1.1,2.4c-0.5,0.9-1.1,1.6-1.9,2.2
	c-0.5,0.4-1.1,0.7-1.7,1c-0.8,0.3-1.6,0.5-2.5,0.7c-0.7,0.1-1.5,0.1-2.3,0.1c-0.1,0-0.2,0-0.3,0l0,0c-0.3,0-0.5,0-0.8,0l0,0
	c-1.8,0-3.5,0-5.4,0h-0.1c-0.5-0.1-0.7-0.3-0.7-0.8V24.7l0,0v-2.5c0-3.4,0-6.7,0-10.1c0-0.5,0.2-0.7,0.6-0.8c0.1,0,0.1,0,0.2,0
	C22.3,11.3,23.4,11.3,24.4,11.3L24.4,11.3z"/>
<path fill="#58595B" d="M61.7,15.4c-1.3,0-2.7,0.4-3.9,0.7c-0.1,0.1-0.2,0.1-0.3,0.1c-0.6,0.3-1.3,0.6-1.8,1c-0.7,0.4-1.5,1-2.1,1.6
	c-0.9,0.9-1.6,1.9-2.2,3c-0.3,0.4-0.5,0.8-0.7,1.3c-0.4,0.8-0.8,1.6-0.9,2.5c-0.4,2-0.8,4.1-0.6,6.3c0.1,1.3,0.4,2.5,0.6,3.7
	c0.1,0.1,0.1,0.1,0.1,0.2c0.4,0.9,0.7,1.7,1.1,2.6c0.3,0.5,0.6,1.1,0.9,1.6c0.5,0.7,1.1,1.4,1.7,2c0.6,0.7,1.3,1.2,2,1.7
	c0.6,0.4,1.2,0.6,1.8,0.9c1.1,0.6,2.3,0.8,3.5,1c1.1,0.1,2.3,0.1,3.5,0.1c1.5,0.1,2.9-0.4,4.4-0.7c0.1,0,0.2-0.1,0.4-0.1
	c0.7-0.3,1.4-0.6,2.1-1c0.5-0.3,1.1-0.6,1.5-1c1-0.7,1.9-1.6,2.7-2.6c0.3-0.3,0.6-0.7,0.8-1c0.2-0.4,0.2-0.6-0.1-0.8
	c-0.1-0.1-0.2-0.2-0.3-0.3c-0.4-0.1-0.7-0.4-1.1-0.6c-0.5-0.3-0.9-0.7-1.4-1c-0.6-0.3-1.1-0.6-1.6-1c-0.6-0.4-0.8-0.3-1.2,0.1
	c-0.5,0.6-1,1.1-1.5,1.6c-0.9,0.9-2.1,1.5-3.3,1.7c-1.8,0.3-3.8,0.5-5.6-0.4c-0.6-0.4-1.2-0.7-1.8-1.2c-0.5-0.5-1-1.1-1.4-1.8
	c-0.4-0.8-0.6-1.7-0.8-2.6c0-0.1,0-0.1,0-0.2c0.1-0.4,0.2-0.7,0.6-0.7c0.4,0,0.8,0,1.3,0c2.8,0,5.7,0,8.5,0l0,0c2.9,0,5.8,0,8.7,0
	c0.7,0,0.9-0.2,0.9-1c0-1-0.1-2.1-0.1-3.1c-0.1-1-0.4-1.9-0.6-2.8c-0.2-1-0.5-1.9-0.8-2.8c-0.4-1-0.9-1.9-1.6-2.8
	c-1.2-1.6-2.7-2.8-4.5-3.6c-0.8-0.4-1.7-0.6-2.6-0.7c-1.3-0.1-2.5-0.1-3.8-0.1C61.9,15.4,61.8,15.4,61.7,15.4L61.7,15.4z M62.9,21.2
	c0.1,0,0.1,0,0.2,0l0,0c0.1,0,0.1,0,0.1,0c0.1,0,0.1,0,0.2,0c0,0,0.1,0,0.1,0l0,0c0.1,0,0.1,0,0.1,0l0,0c0.1,0,0.1,0.1,0.2,0.1l0,0
	c0.1,0,0.1,0,0.1,0c0.1,0,0.1,0,0.2,0s0.1,0.1,0.1,0.1l0,0c0.1,0,0.2,0,0.4,0.1l0,0c0.1,0,0.2,0,0.4,0.1l0,0h0.1l0,0
	c0,0,0.1,0,0.1,0.1c0.1,0,0.2,0.1,0.4,0.1c0.1,0.1,0.1,0.1,0.1,0.1l0,0c0.1,0,0.1,0,0.2,0.1l0,0c0.1,0,0.1,0.1,0.1,0.1l0,0
	c0.1,0.1,0.1,0.1,0.1,0.1l0,0c0.1,0,0.1,0.1,0.2,0.1l0,0c0,0.1,0.1,0.1,0.1,0.1l0,0c0.1,0.1,0.3,0.2,0.4,0.4l0,0
	c0.1,0,0.1,0.1,0.1,0.1l0,0c0.1,0.1,0.1,0.1,0.1,0.1l0,0c0.1,0.1,0.1,0.1,0.1,0.1c0.4,0.4,0.8,0.9,1.1,1.4c0.2,0.4,0.4,0.7,0.5,1.1
	c0.1,0.1,0.1,0.2,0.1,0.4c0.1,0.4,0.1,0.6-0.1,0.7c-0.1,0.1-0.4,0.1-0.6,0.1c-1,0-2,0-2.9,0c-1,0-2,0-2.9,0l0,0l0,0
	c-1.8,0-3.7,0-5.5,0c-0.1,0-0.1,0-0.2,0h-0.1c-0.1,0-0.1,0-0.1,0l0,0c0,0,0,0-0.1,0l0,0h-0.1l0,0c-0.1,0-0.1-0.1-0.1-0.1l0,0
	c-0.1,0-0.1-0.1-0.2-0.1l0,0c0,0,0-0.1-0.1-0.1c-0.1-0.1-0.1-0.4,0-0.7c0.4-1,0.8-1.8,1.5-2.5c0.3-0.3,0.6-0.6,1-0.9
	c0.3-0.2,0.5-0.4,0.8-0.5c0.1-0.1,0.3-0.1,0.4-0.2c0.1-0.1,0.1-0.1,0.2-0.1c0.2-0.1,0.4-0.1,0.6-0.2c0.1,0,0.2,0,0.3,0
	c0.1-0.1,0.3-0.1,0.5-0.1c0.2,0,0.4-0.1,0.7-0.1C62.5,21.2,62.7,21.2,62.9,21.2L62.9,21.2z"/>
<path fill="#58595B" d="M91.5,15.4c-0.9,0-1.8,0.1-2.7,0.2c-1.3,0.1-2.5,0.4-3.6,1c-1,0.4-1.9,1-2.7,1.9c-0.8,0.7-1.3,1.6-1.8,2.8
	c-0.4,0.9-0.5,1.9-0.6,2.8c-0.1,0.4,0.1,0.7,0.6,0.7C80.8,25,81,25,81.1,25c0.6,0,1.2,0.1,1.8,0.1c1,0.1,1.9,0.1,2.9,0.2
	c0.5,0,0.7-0.1,0.8-0.7c0.1-0.1,0.1-0.2,0.1-0.4c0.1-0.9,0.4-1.6,1-2.2c0.7-0.7,1.5-0.9,2.4-1c1.7-0.2,3.4-0.2,5,0.5
	c0.7,0.3,1.3,0.9,1.5,1.6c0.1,0.5,0.1,1.1,0.2,1.6c0.1,0.4-0.1,0.6-0.4,0.7c-0.6,0.2-1.3,0.4-1.9,0.6c-0.6,0.1-1.1,0.3-1.7,0.4
	c-0.4,0.1-0.9,0.2-1.4,0.3c-0.5,0.1-1,0.2-1.5,0.4c-0.4,0.1-0.8,0.1-1.3,0.3c-1.1,0.2-2.3,0.5-3.4,0.8c-0.2,0-0.4,0.1-0.5,0.1
	c-0.2,0.1-0.4,0.2-0.6,0.3c-0.6,0.3-1.2,0.6-1.8,1c-0.6,0.5-1.3,1.1-1.8,1.8c-0.7,0.7-1.2,1.6-1.4,2.7c-0.3,1.2-0.5,2.4-0.4,3.7
	c0.2,1.6,0.5,3,1.4,4.3c0.6,1,1.4,1.8,2.4,2.4c0.9,0.7,2,1.1,3.2,1.3c2.6,0.4,5.1,0.2,7.6-1c0.9-0.4,1.8-0.9,2.6-1.5
	c0-0.1,0.1-0.1,0.2-0.1c0.4-0.2,0.6-0.1,0.8,0.4c0.1,0.3,0.1,0.6,0.2,1c0.2,0.7,0.4,0.8,1.1,0.8c1.8,0,3.4,0,5.2,0
	c0.7,0,0.9-0.3,0.6-1c-0.2-0.4-0.4-0.8-0.4-1.2c-0.1-0.9-0.2-1.8-0.2-2.6c0-2.7,0-5.4,0-8l0,0c0-1.9,0-3.9,0-5.8c0-1,0-2.2-0.1-3.2
	c-0.2-1.6-0.6-3.2-1.5-4.6c-1-1.4-2.3-2.2-3.8-2.8c-0.8-0.3-1.6-0.4-2.4-0.5c-1.1-0.1-2.1-0.2-3.2-0.2
	C92.2,15.4,91.9,15.4,91.5,15.4L91.5,15.4z M96.4,31C96.4,31,96.4,31,96.4,31L96.4,31c0.1,0,0.2,0.1,0.3,0.1c0,0,0,0.1,0.1,0.1
	c0,0.1,0,0.1,0.1,0.1c0,0.1,0,0.1,0,0.2c0,0.3,0,0.5,0,0.8l0,0l0,0c0,0.3,0,0.6,0,0.9c0.1,0,0.1,0,0.1,0c-0.1,0.9-0.1,1.7-0.1,2.6
	c0,0.1-0.1,0.1-0.1,0.1c0,0.1,0,0.1,0,0.1l0,0l0,0c-0.1,0.4-0.1,0.6-0.3,0.9c-0.1,0-0.1,0-0.1,0.1l0,0l0,0c-0.1,0.1-0.1,0.1-0.1,0.2
	c-0.1,0.1-0.3,0.4-0.4,0.5c-0.6,0.7-1.5,1.3-2.4,1.6c-1,0.5-2,0.7-3.1,0.7c-0.1,0-0.2,0-0.3,0c-0.4,0-0.8,0-1.2-0.1
	c-0.5,0-0.9-0.1-1.3-0.4l0,0c-0.4-0.2-0.6-0.5-0.9-0.8c-0.1-0.1-0.2-0.2-0.3-0.3s-0.1-0.1-0.1-0.1c0-0.1-0.1-0.2-0.1-0.3
	c-0.1-0.1-0.1-0.2-0.1-0.3c-0.1-0.1-0.1-0.3-0.1-0.4c-0.1-0.3-0.1-0.5-0.1-0.8c0-0.1,0-0.2,0-0.3c0-0.1,0.1-0.2,0.1-0.4
	c0-0.1,0-0.1,0.1-0.2c0-0.1,0.1-0.4,0.1-0.5c0-0.1,0-0.1,0-0.1L86,35c0-0.1,0-0.1,0.1-0.1c0-0.1,0-0.1,0-0.1
	c0.1-0.1,0.1-0.1,0.1-0.2c0.1-0.1,0.1-0.1,0.1-0.1c0.1-0.1,0.1-0.1,0.2-0.2c0.3-0.3,0.6-0.5,1-0.7c1.7-0.7,3.5-1,5.4-1.4
	c0.6-0.1,1.2-0.3,1.8-0.4c0.3-0.1,0.6-0.1,0.8-0.2c0.1,0,0.1,0,0.2,0c0-0.1,0.1-0.1,0.1-0.1s0,0,0.1,0l0,0c0,0,0.1,0,0.1-0.1l0,0
	c0.1,0,0.1,0,0.1,0c0.1-0.1,0.1-0.1,0.2-0.1C96.2,31,96.2,31,96.4,31L96.4,31z"/>
<path fill="#58595B" d="M172.9,24.7c-0.6,0.1-1.1-0.1-1.7-0.4c-0.3-0.1-0.6-0.2-1-0.3c-0.1-0.1-0.1,0-0.2-0.1
	c-1.2-0.3-2.2,0.1-3.2,0.5c-0.9,0.4-2,0.5-3-0.2c-0.8-0.7-1.5-1.6-2-2.5c-0.3-0.5-0.6-1-0.9-1.6c-0.4-0.7-0.6-1.6-0.9-2.4
	c-0.1-0.4-0.2-0.7-0.4-1c-0.1-0.4-0.1-0.8-0.2-1.3c-0.1-1.2-0.2-2.4,0-3.6c0.1-0.4,0.2-0.9,0.3-1.3c0.1-0.2,0.1-0.4,0.2-0.5
	c0.2-0.8,0.6-1.4,1.1-1.9c0.4-0.4,0.7-0.7,1.1-1c1.5-1,3-1.3,4.8-0.6c0.6,0.2,1.2,0.4,1.8,0.7c0.2,0,0.5,0,0.7-0.1
	c0.6-0.2,1.1-0.4,1.7-0.7c0.4-0.1,0.8-0.2,1.3-0.3c0.5-0.1,1,0,1.5,0c0.3,0,0.6,0.1,0.9,0.1c1,0.4,1.8,1,2.6,1.7
	c0.3,0.3,0.3,0.6,0,0.9c-0.2,0.1-0.4,0.3-0.5,0.4c-1.1,1.1-1.8,2.4-1.7,4c0,1.4,0.5,2.7,1.5,3.7c0.3,0.2,0.6,0.4,0.8,0.7
	c0.7,0.4,0.8,0.9,0.4,1.6c-0.1,0.1-0.1,0.3-0.2,0.4c-0.6,1.5-1.3,2.8-2.5,3.9c-0.4,0.4-0.7,0.7-1.1,1c-0.4,0.1-0.8,0.1-1.2,0.3
	C172.9,24.8,172.9,24.8,172.9,24.7L172.9,24.7z"/>
<path fill="#58595B" d="M116.1,24.8c0,6.4,0,12.7,0,19c0,0.3,0,0.7,0,1c0,0.4-0.2,0.7-0.6,0.7c-1.7,0-3.4,0-5.2,0
	c-0.5,0-0.7-0.2-0.7-0.8c0-0.4,0-0.8,0-1.2c0-12.6,0-25.1,0-37.7c0-0.3,0-0.7,0-1s0.1-0.6,0.5-0.6c0.1-0.1,0.2-0.1,0.4-0.1
	c1.7,0,3.3,0,5,0c0.6,0,0.7,0.2,0.7,0.7V24.8L116.1,24.8L116.1,24.8z"/>
<path fill="#58595B" d="M0,30.7c0-4.6,0-9.3,0-13.9C0,16,0,16,0.7,16c1.5,0,2.9,0,4.3,0c0.4,0,0.6,0,0.9,0.1c0.4,0,0.6,0.2,0.6,0.7
	c0,8.7,0,17.4,0,26.1c0,0.6,0,1.2,0,1.8c0,0.4-0.2,0.7-0.7,0.8c-0.1,0-0.3,0-0.4,0c-1.5,0-3.1,0-4.6,0c-0.8,0-0.8,0-0.8-0.8
	C0,40,0,35.4,0,30.7L0,30.7z"/>
<path fill="#58595B" d="M0,7.7c0-1,0-2.2,0-3.2c0-0.2,0.1-0.4,0.4-0.4s0.6,0,0.9-0.1c1.4,0,2.8,0,4.3,0c0.1,0,0.4,0.1,0.5,0.1
	c0.3,0.1,0.5,0.3,0.5,0.6c0,1.9,0,3.9,0,5.8c0,0.6-0.3,0.8-0.9,0.8c-1.5,0-2.9,0-4.4,0c-0.4,0-0.6,0-1,0c-0.2,0-0.3-0.1-0.3-0.4
	C0,9.9,0,8.8,0,7.7L0,7.7L0,7.7z"/>
<rect x="134.3" y="0.2" fill="#58595B" width="0.6" height="49.8"/>
<path fill="#58595B" d="M151,38.2h1.2v-2.6c0.1,0.1,0.4,0.1,0.6,0.1c0.8,0,1.5-0.2,2-0.7c0.4-0.4,0.5-0.9,0.5-1.5
	c0-0.7-0.2-1.2-0.6-1.5c-0.4-0.4-1.1-0.6-1.9-0.6c-0.8,0-1.4,0.1-1.8,0.1V38.2L151,38.2z M152.2,32.3c0.1-0.1,0.4-0.1,0.6-0.1
	c0.8,0,1.3,0.4,1.3,1.1c0,0.8-0.6,1.3-1.4,1.3c-0.2,0-0.4,0-0.6-0.1V32.3L152.2,32.3z"/>
<path fill="#58595B" d="M156.2,38.2h1.2v-2.5c0-0.1,0-0.3,0-0.4c0.1-0.6,0.5-1,1.1-1c0.1,0,0.3,0,0.4,0.1v-1.2
	c-0.1,0-0.1-0.1-0.3-0.1c-0.5,0-1,0.4-1.3,1l0,0l-0.1-0.9h-1c0,0.4,0,0.9,0,1.6L156.2,38.2L156.2,38.2z"/>
<path fill="#58595B" d="M163.4,36c0-0.1,0-0.2,0-0.5c0-1-0.5-2.4-2-2.4s-2.3,1.3-2.3,2.7c0,1.5,0.8,2.5,2.4,2.5
	c0.6,0,1.2-0.1,1.5-0.3L163,37c-0.4,0.1-0.7,0.2-1.3,0.2c-0.8,0-1.4-0.4-1.4-1.3L163.4,36L163.4,36z M160.3,35.2
	c0-0.5,0.4-1.2,1.1-1.2c0.8,0,1,0.7,0.9,1.2H160.3L160.3,35.2z"/>
<path fill="#58595B" d="M164.3,38.2h1.2v-2.9c0-0.1,0-0.3,0.1-0.4c0.1-0.3,0.4-0.7,0.8-0.7c0.6,0,0.8,0.4,0.8,1.2v2.8h1.1v-3
	c0-0.1,0-0.3,0.1-0.4c0.1-0.4,0.4-0.7,0.8-0.7c0.6,0,0.8,0.4,0.8,1.3v2.8h1.1v-2.9c0-1.6-0.8-2.2-1.5-2.2c-0.4,0-0.6,0.1-0.9,0.3
	c-0.2,0.1-0.4,0.4-0.6,0.7l0,0c-0.2-0.6-0.7-1-1.3-1c-0.8,0-1.2,0.5-1.4,0.9l0,0l-0.1-0.7h-1c0,0.4,0,0.9,0,1.4L164.3,38.2
	L164.3,38.2z"/>
<path fill="#58595B" d="M173.6,38.2v-4.9h-1.1v4.9H173.6L173.6,38.2z M173,31.2c-0.4,0-0.6,0.3-0.6,0.7s0.2,0.7,0.6,0.7
	c0.4,0,0.6-0.3,0.6-0.7C173.6,31.5,173.4,31.2,173,31.2L173,31.2z"/>
<path fill="#58595B" d="M179,33.2h-1.2v3c0,0.1,0,0.2-0.1,0.4c-0.1,0.3-0.4,0.7-0.8,0.7c-0.6,0-0.9-0.5-0.9-1.3v-2.7h-1.1v2.8
	c0,1.6,0.8,2.2,1.6,2.2c0.8,0,1.3-0.5,1.5-0.8l0,0l0.1,0.7h1c0-0.4,0-0.9,0-1.5L179,33.2L179,33.2z"/>
<path fill="#58595B" d="M180.2,38.2h1.1v-2.9c0-0.1,0-0.3,0.1-0.4c0.1-0.3,0.4-0.7,0.8-0.7s0.8,0.4,0.8,1.2v2.8h1.1v-3
	c0-0.1,0-0.3,0.1-0.4c0.1-0.4,0.4-0.7,0.8-0.7c0.6,0,0.8,0.4,0.8,1.3v2.8h1.1v-2.9c0-1.6-0.8-2.2-1.5-2.2c-0.4,0-0.6,0.1-0.9,0.3
	c-0.2,0.1-0.4,0.4-0.6,0.7l0,0c-0.2-0.6-0.7-1-1.3-1c-0.8,0-1.2,0.5-1.5,0.9l0,0l-0.1-0.7h-1c0,0.4,0.1,0.9,0.1,1.4L180.2,38.2
	L180.2,38.2z"/>
<path fill="#58595B" d="M153.5,49.9h1.2v-2.8h0.6c0.7,0,1,0.3,1.1,1.1c0.2,0.9,0.4,1.4,0.5,1.6h1.2c-0.1-0.3-0.4-1-0.6-1.9
	c-0.1-0.7-0.4-1.2-0.8-1.3l0,0c0.6-0.3,1.1-0.8,1.1-1.7c0-0.6-0.2-1-0.6-1.3c-0.4-0.4-1-0.6-2-0.6c-0.6,0-1.3,0.1-1.8,0.1
	L153.5,49.9L153.5,49.9z M154.7,44c0.1-0.1,0.4-0.1,0.7-0.1c0.8,0,1.3,0.3,1.3,1c0,0.7-0.5,1.1-1.3,1.1h-0.7V44L154.7,44z"/>
<path fill="#58595B" d="M162.8,47.8c0.1-0.1,0.1-0.3,0.1-0.5c0-1.1-0.5-2.4-2-2.4s-2.3,1.3-2.3,2.6c0,1.5,0.8,2.5,2.3,2.5
	c0.7,0,1.3-0.1,1.6-0.3l-0.1-0.8c-0.4,0.1-0.8,0.2-1.3,0.2c-0.8,0-1.4-0.4-1.4-1.3L162.8,47.8L162.8,47.8z M159.8,46.9
	c0-0.5,0.3-1.2,1.1-1.2c0.8,0,0.9,0.7,0.9,1.2H159.8L159.8,46.9z"/>
<path fill="#58595B" d="M163.5,49.6c0.4,0.1,0.8,0.3,1.4,0.3c1.3,0,1.9-0.6,1.9-1.5c0-0.7-0.4-1.2-1.3-1.5c-0.6-0.2-0.8-0.4-0.8-0.7
	c0-0.3,0.2-0.4,0.6-0.4c0.4,0,0.8,0.1,1,0.2l0.2-0.8c-0.3-0.1-0.7-0.3-1.2-0.3c-1.1,0-1.8,0.7-1.8,1.5c0,0.6,0.4,1.1,1.3,1.4
	c0.6,0.2,0.8,0.4,0.8,0.7s-0.2,0.5-0.8,0.5c-0.4,0-0.9-0.1-1.2-0.3L163.5,49.6L163.5,49.6z"/>
<path fill="#58595B" d="M171.7,47.8c0-0.1,0.1-0.3,0.1-0.5c0-1.1-0.5-2.4-2-2.4c-1.5,0-2.3,1.3-2.3,2.6c0,1.5,0.9,2.5,2.4,2.5
	c0.7,0,1.2-0.1,1.6-0.3l-0.1-0.8c-0.4,0.1-0.8,0.2-1.3,0.2c-0.7,0-1.3-0.4-1.4-1.3L171.7,47.8L171.7,47.8z M168.6,46.9
	c0.1-0.5,0.4-1.2,1.1-1.2c0.8,0,1,0.7,1,1.2H168.6L168.6,46.9z"/>
<polygon fill="#58595B" points="172.6,49.9 173.8,49.9 173.8,42.7 172.6,42.7 "/>
<polygon fill="#58595B" points="175.1,49.9 176.2,49.9 176.2,42.7 175.1,42.7 "/>
<path fill="#58595B" d="M181.4,47.8c0-0.1,0.1-0.3,0.1-0.5c0-1.1-0.5-2.4-2-2.4c-1.5,0-2.3,1.3-2.3,2.6c0,1.5,0.9,2.5,2.4,2.5
	c0.7,0,1.2-0.1,1.6-0.3l-0.1-0.8c-0.4,0.1-0.8,0.2-1.3,0.2c-0.7,0-1.3-0.4-1.4-1.3L181.4,47.8L181.4,47.8z M178.3,46.9
	c0.1-0.5,0.4-1.2,1.1-1.2c0.8,0,1,0.7,1,1.2H178.3L178.3,46.9z"/>
<path fill="#58595B" d="M182.4,49.9h1.1v-2.5c0-0.1,0.1-0.3,0.1-0.4c0.1-0.6,0.5-1,1.1-1c0.1,0,0.2,0.1,0.4,0.1v-1.2
	c-0.1,0-0.2,0-0.3,0c-0.5,0-1.1,0.3-1.3,1h-0.1v-1h-1.1c0.1,0.4,0.1,0.9,0.1,1.6L182.4,49.9L182.4,49.9z"/>
</svg>
