<?xml version="1.0" encoding="utf-8"?>
<!-- Generator: Adobe Illustrator 16.0.0, SVG Export Plug-In . SVG Version: 6.00 Build 0)  -->
<!DOCTYPE svg PUBLIC "-//W3C//DTD SVG 1.1//EN" "http://www.w3.org/Graphics/SVG/1.1/DTD/svg11.dtd">
<svg version="1.1" id="Layer_1" xmlns="http://www.w3.org/2000/svg" xmlns:xlink="http://www.w3.org/1999/xlink" x="0px" y="0px"
	 width="45px" height="45px" viewBox="0 0 45 45" enable-background="new 0 0 45 45" xml:space="preserve">
<g>
	<path fill="#86C1E0" d="M20.348,22.35L0.429,42.27c-0.553,0.551-0.553,1.448,0,2.002c0.276,0.276,0.639,0.415,1.001,0.415
		c0.363,0,0.725-0.139,1.002-0.415L22.5,24.204l20.067,20.067c0.277,0.276,0.64,0.415,1.002,0.415c0.363,0,0.726-0.139,1-0.415
		c0.555-0.554,0.555-1.451,0-2.002L24.652,22.35L44.584,2.418c0.553-0.554,0.553-1.45,0-2.003c-0.554-0.552-1.451-0.552-2.002,0
		L22.5,20.497L2.418,0.416c-0.554-0.553-1.449-0.553-2.002,0c-0.554,0.553-0.554,1.449,0,2.003L20.348,22.35z"/>
</g>
</svg>
