<svg xmlns="http://www.w3.org/2000/svg" width="21" height="21" viewBox="0 0 21 21" enable-background="new 0 0 21 21"><path fill="#86c1e0" d="m18.2 21c-.2 0-.4-.1-.6-.2l-4.5-4.5c-1.3.8-2.9 1.2-4.5 1.2-4.7 0-8.6-3.9-8.6-8.8 0-4.8 3.9-8.7 8.7-8.7 4.8 0 8.7 3.9 8.7 8.7 0 1.5-.4 3-1.1 4.3l4.5 4.6c.1.1.2.4.2.6 0 .4-.3 1-.7 1.4l-.7.7c-.5.5-1 .7-1.4.7m0-.9c.1 0 .4-.1.8-.5l.7-.7c.3-.3.5-.7.4-.8l-5-5 .2-.3c.8-1.2 1.2-2.7 1.2-4.1 0-4.3-3.5-7.9-7.8-7.9-4.3 0-7.8 3.5-7.8 7.9 0 4.3 3.5 7.9 7.8 7.9 1.5 0 3-.4 4.3-1.3l.3-.2 4.9 5m-9.5-5.4c-3.3 0-5.9-2.7-5.9-6 0-3.3 2.7-6 5.9-6 3.3 0 5.9 2.7 5.9 6 0 3.3-2.6 6-5.9 6m0-11.1c-2.8 0-5.1 2.3-5.1 5.1 0 2.8 2.3 5.1 5.1 5.1 2.8 0 5.1-2.3 5.1-5.1-.1-2.8-2.3-5.1-5.1-5.1"/></svg>