<?xml version="1.0" encoding="utf-8"?>
<!-- Generator: Adobe Illustrator 22.1.0, SVG Export Plug-In . SVG Version: 6.00 Build 0)  -->
<svg version="1.1" id="Layer_1" xmlns="http://www.w3.org/2000/svg" xmlns:xlink="http://www.w3.org/1999/xlink" x="0px" y="0px"
	 viewBox="0 0 512 512" style="enable-background:new 0 0 512 512;" xml:space="preserve">
<g>
	<g>
		<path d="M401,98.6c-2.5-1.9-5.8-2.2-8.6-0.7L79.8,259.6c-2.7,1.4-4.4,4.2-4.4,7.2s1.7,5.8,4.5,7.2l81.8,40.9v81
			c0,2.1,0.7,4.2,2.2,5.8c1.6,1.7,3.8,2.6,5.9,2.6c1.4,0,2.7-0.3,3.9-1l93.5-52l71.6,30.7c1.5,0.7,3.2,0.9,4.8,0.6
			c3.4-0.6,5.8-3.2,6.5-6.4l18.1-90.6c1-5-2.8-9.7-7.9-9.7c-3.9,0-7.2,2.7-7.9,6.5l-16.2,80.8L270,334.8c-2.3-1-4.9-0.9-7.1,0.4
			l-85,47.2v-72.5c0-3.1-1.7-5.9-4.5-7.2l-72-36L384.9,120l-24.6,123c-1,5,2.8,9.7,7.9,9.7c3.9,0,7.2-2.7,7.9-6.5l27.9-139.5
			C404.7,103.6,403.5,100.5,401,98.6z"/>
	</g>
</g>
<g>
	<g>
		<path d="M348.6,164.8c-2.5-3.2-7.1-4-10.6-1.9l-140.1,86.2c-2.4,1.5-3.8,4.1-3.8,6.9v86.2c0,3.8,2.6,7,6.2,7.9
			c0.6,0.1,1.2,0.2,1.9,0.2c3,0,5.8-1.7,7.2-4.5l31.8-63.5l106.9-106.9C350.8,172.6,351.1,168,348.6,164.8z M228.7,271.8
			c-0.6,0.6-1.1,1.3-1.5,2.1l-17,34v-47.5l77.6-47.8L228.7,271.8z"/>
	</g>
</g>
</svg>
